# xmcd CD database file
#
# Track frame offsets:
#	182
#	21825
#	62915
#	95780
#	124710
#	139292
#	186622
#	226335
#
# Disc length: 3586 seconds
#
# Revision: 0
# Processed by: cddbd v1.5.1PL2 Copyright (c) Steve Scherf et al.
# Submitted via: CDex 1.70beta2
#
DISCID=770e0008
DTITLE=The Atman Project - Love and Pain
DYEAR=1989
DGENRE=New Age
TTITLE0=Opening #2
TTITLE1=What You Will
TTITLE2=Twelfth Night
TTITLE3=Whales
TTITLE4=Basic Bodies #4
TTITLE5=Coming Home
TTITLE6=South
TTITLE7=The Big Sleep
EXTD=YEAR: 1989
EXTT0=
EXTT1=
EXTT2=
EXTT3=
EXTT4=
EXTT5=
EXTT6=
EXTT7=
PLAYORDER=
